<mxfile host="app.diagrams.net" modified="2020-12-03T22:55:46.576Z" agent="5.0 (Windows)" etag="hnzKxerq2TuJNSfWluwy" version="13.10.7" type="github">
  <diagram id="ZAYAtZIgmon7IQ3GefVp" name="Page-1">
    <mxGraphModel dx="1021" dy="531" grid="1" gridSize="10" guides="1" tooltips="1" connect="1" arrows="1" fold="1" page="1" pageScale="1" pageWidth="827" pageHeight="1169" math="0" shadow="0">
      <root>
        <mxCell id="0" />
        <mxCell id="1" parent="0" />
        <mxCell id="3GcMtql7V56vAbpa6kK3-1" value="&lt;font style=&quot;font-size: 24px&quot;&gt;&lt;b&gt;&lt;font style=&quot;font-size: 24px&quot;&gt;SMART GUN SYSTEM&lt;/font&gt;&lt;/b&gt;&lt;/font&gt;" style="text;html=1;strokeColor=none;fillColor=none;align=center;verticalAlign=middle;whiteSpace=wrap;rounded=0;" parent="1" vertex="1">
          <mxGeometry x="240" y="30" width="370" height="50" as="geometry" />
        </mxCell>
        <mxCell id="3GcMtql7V56vAbpa6kK3-18" style="edgeStyle=orthogonalEdgeStyle;rounded=0;orthogonalLoop=1;jettySize=auto;html=1;entryX=0;entryY=0.5;entryDx=0;entryDy=0;exitX=1;exitY=0.3333333333333333;exitDx=0;exitDy=0;exitPerimeter=0;" parent="1" source="3GcMtql7V56vAbpa6kK3-2" target="3GcMtql7V56vAbpa6kK3-20" edge="1">
          <mxGeometry relative="1" as="geometry">
            <mxPoint x="79" y="474" as="targetPoint" />
            <mxPoint x="119" y="504" as="sourcePoint" />
            <Array as="points">
              <mxPoint x="109" y="449" />
            </Array>
          </mxGeometry>
        </mxCell>
        <mxCell id="3GcMtql7V56vAbpa6kK3-71" style="edgeStyle=orthogonalEdgeStyle;rounded=0;orthogonalLoop=1;jettySize=auto;html=1;exitX=1;exitY=1;exitDx=0;exitDy=0;exitPerimeter=0;entryX=0;entryY=0.6;entryDx=0;entryDy=0;entryPerimeter=0;" parent="1" source="3GcMtql7V56vAbpa6kK3-2" target="3GcMtql7V56vAbpa6kK3-67" edge="1">
          <mxGeometry relative="1" as="geometry">
            <Array as="points">
              <mxPoint x="109" y="544" />
              <mxPoint x="109" y="586" />
            </Array>
          </mxGeometry>
        </mxCell>
        <mxCell id="3GcMtql7V56vAbpa6kK3-2" value="&lt;font style=&quot;font-size: 15px&quot;&gt;Policjant&lt;/font&gt;" style="shape=umlActor;verticalLabelPosition=bottom;verticalAlign=top;html=1;outlineConnect=0;fillColor=#dae8fc;strokeColor=#6c8ebf;" parent="1" vertex="1">
          <mxGeometry x="19" y="484" width="30" height="60" as="geometry" />
        </mxCell>
        <mxCell id="U8Dto0rnsPPyauF-UxUy-13" style="edgeStyle=orthogonalEdgeStyle;rounded=0;orthogonalLoop=1;jettySize=auto;html=1;entryX=1;entryY=0.5;entryDx=0;entryDy=0;" edge="1" parent="1" source="3GcMtql7V56vAbpa6kK3-12" target="3GcMtql7V56vAbpa6kK3-15">
          <mxGeometry relative="1" as="geometry" />
        </mxCell>
        <mxCell id="3GcMtql7V56vAbpa6kK3-12" value="&lt;font style=&quot;font-size: 14px&quot;&gt;Moduł GPS&lt;/font&gt;" style="shape=umlActor;verticalLabelPosition=bottom;verticalAlign=top;html=1;fillColor=#ffe6cc;strokeColor=#d79b00;" parent="1" vertex="1">
          <mxGeometry x="769" y="625" width="30" height="60" as="geometry" />
        </mxCell>
        <mxCell id="3GcMtql7V56vAbpa6kK3-15" value="Ustalanie lokalizacji" style="ellipse;whiteSpace=wrap;html=1;fillColor=#e1d5e7;strokeColor=#9673a6;" parent="1" vertex="1">
          <mxGeometry x="500" y="620" width="140" height="70" as="geometry" />
        </mxCell>
        <mxCell id="3GcMtql7V56vAbpa6kK3-16" value="&amp;lt;&amp;lt;extend&amp;gt;&amp;gt;" style="endArrow=block;endSize=16;endFill=0;html=1;entryX=0.643;entryY=0.929;entryDx=0;entryDy=0;entryPerimeter=0;exitX=0.5;exitY=0;exitDx=0;exitDy=0;" parent="1" source="3GcMtql7V56vAbpa6kK3-17" target="3GcMtql7V56vAbpa6kK3-15" edge="1">
          <mxGeometry width="160" relative="1" as="geometry">
            <mxPoint x="1139" y="833" as="sourcePoint" />
            <mxPoint x="1299" y="833" as="targetPoint" />
          </mxGeometry>
        </mxCell>
        <mxCell id="3GcMtql7V56vAbpa6kK3-17" value="Aktualizuj okresowo" style="ellipse;whiteSpace=wrap;html=1;fillColor=#e1d5e7;strokeColor=#9673a6;" parent="1" vertex="1">
          <mxGeometry x="659" y="740" width="140" height="70" as="geometry" />
        </mxCell>
        <mxCell id="3GcMtql7V56vAbpa6kK3-20" value="Obsługa pistoletu" style="ellipse;whiteSpace=wrap;html=1;fillColor=#dae8fc;strokeColor=#6c8ebf;" parent="1" vertex="1">
          <mxGeometry x="184" y="424" width="120" height="50" as="geometry" />
        </mxCell>
        <mxCell id="3GcMtql7V56vAbpa6kK3-32" value="Autoryzacja pistoletu" style="ellipse;whiteSpace=wrap;html=1;fillColor=#dae8fc;strokeColor=#6c8ebf;" parent="1" vertex="1">
          <mxGeometry x="359" y="464" width="160" height="70" as="geometry" />
        </mxCell>
        <mxCell id="3GcMtql7V56vAbpa6kK3-40" value="&amp;lt;&amp;lt;include&amp;gt;&amp;gt;" style="endArrow=block;endSize=16;endFill=0;html=1;entryX=0;entryY=0.5;entryDx=0;entryDy=0;exitX=1;exitY=0.5;exitDx=0;exitDy=0;" parent="1" source="3GcMtql7V56vAbpa6kK3-20" target="3GcMtql7V56vAbpa6kK3-32" edge="1">
          <mxGeometry width="160" relative="1" as="geometry">
            <mxPoint x="289" y="444" as="sourcePoint" />
            <mxPoint x="449" y="444" as="targetPoint" />
          </mxGeometry>
        </mxCell>
        <mxCell id="3GcMtql7V56vAbpa6kK3-43" value="&amp;lt;&amp;lt;extend&amp;gt;&amp;gt;" style="endArrow=block;endSize=16;endFill=0;html=1;" parent="1" source="3GcMtql7V56vAbpa6kK3-44" target="3GcMtql7V56vAbpa6kK3-32" edge="1">
          <mxGeometry width="160" relative="1" as="geometry">
            <mxPoint x="609" y="404" as="sourcePoint" />
            <mxPoint x="689" y="444" as="targetPoint" />
          </mxGeometry>
        </mxCell>
        <mxCell id="3GcMtql7V56vAbpa6kK3-44" value="&lt;div&gt;Niedozwolona &lt;br&gt;&lt;/div&gt;&lt;div&gt;autoryzacja&lt;br&gt;&lt;/div&gt;" style="ellipse;whiteSpace=wrap;html=1;fillColor=#dae8fc;strokeColor=#6c8ebf;" parent="1" vertex="1">
          <mxGeometry x="599" y="520" width="180" height="90" as="geometry" />
        </mxCell>
        <mxCell id="U8Dto0rnsPPyauF-UxUy-52" style="edgeStyle=orthogonalEdgeStyle;rounded=0;orthogonalLoop=1;jettySize=auto;html=1;entryX=0.027;entryY=0.678;entryDx=0;entryDy=0;entryPerimeter=0;" edge="1" parent="1" source="3GcMtql7V56vAbpa6kK3-45" target="3GcMtql7V56vAbpa6kK3-87">
          <mxGeometry relative="1" as="geometry" />
        </mxCell>
        <mxCell id="3GcMtql7V56vAbpa6kK3-45" value="&lt;font style=&quot;font-size: 14px&quot;&gt;Lokalny&amp;nbsp; dyspozytor systemu&lt;/font&gt;" style="shape=umlActor;verticalLabelPosition=bottom;verticalAlign=top;html=1;gradientColor=#ffd966;fillColor=#fff2cc;strokeColor=#d6b656;" parent="1" vertex="1">
          <mxGeometry x="80" y="970" width="36" height="70" as="geometry" />
        </mxCell>
        <mxCell id="U8Dto0rnsPPyauF-UxUy-38" style="edgeStyle=orthogonalEdgeStyle;rounded=0;orthogonalLoop=1;jettySize=auto;html=1;entryX=1;entryY=0.5;entryDx=0;entryDy=0;" edge="1" parent="1" source="3GcMtql7V56vAbpa6kK3-53" target="3GcMtql7V56vAbpa6kK3-56">
          <mxGeometry relative="1" as="geometry">
            <mxPoint x="610" y="870" as="targetPoint" />
            <Array as="points">
              <mxPoint x="660" y="870" />
              <mxPoint x="660" y="820" />
              <mxPoint x="530" y="820" />
              <mxPoint x="530" y="761" />
            </Array>
          </mxGeometry>
        </mxCell>
        <mxCell id="3GcMtql7V56vAbpa6kK3-53" value="&lt;font style=&quot;font-size: 14px&quot;&gt;Moduł komunikacji radiowej&lt;/font&gt;" style="shape=umlActor;verticalLabelPosition=bottom;verticalAlign=top;html=1;fillColor=#f8cecc;strokeColor=#b85450;" parent="1" vertex="1">
          <mxGeometry x="720" y="840" width="30" height="60" as="geometry" />
        </mxCell>
        <mxCell id="3GcMtql7V56vAbpa6kK3-56" value="Komunikacja radiowa z dyspozytorem " style="ellipse;whiteSpace=wrap;html=1;fillColor=#f8cecc;strokeColor=#b85450;" parent="1" vertex="1">
          <mxGeometry x="359" y="726.5" width="140" height="70" as="geometry" />
        </mxCell>
        <mxCell id="3GcMtql7V56vAbpa6kK3-60" value="&lt;div&gt;Potwierdzenie &lt;br&gt;&lt;/div&gt;&lt;div&gt;odebrania &lt;br&gt;&lt;/div&gt;&lt;div&gt;komunikatu&lt;br&gt;&lt;/div&gt;" style="ellipse;whiteSpace=wrap;html=1;fillColor=#f8cecc;strokeColor=#b85450;" parent="1" vertex="1">
          <mxGeometry x="480" y="910" width="140" height="70" as="geometry" />
        </mxCell>
        <mxCell id="3GcMtql7V56vAbpa6kK3-67" value="&lt;div&gt;Deautoryzacja &lt;br&gt;&lt;/div&gt;&lt;div&gt;pistoletu&lt;br&gt;&lt;/div&gt;" style="ellipse;whiteSpace=wrap;html=1;fillColor=#dae8fc;strokeColor=#6c8ebf;" parent="1" vertex="1">
          <mxGeometry x="174" y="554" width="140" height="54" as="geometry" />
        </mxCell>
        <mxCell id="3GcMtql7V56vAbpa6kK3-68" value="&amp;lt;&amp;lt;include&amp;gt;&amp;gt;" style="endArrow=block;endSize=16;endFill=0;html=1;entryX=0;entryY=1;entryDx=0;entryDy=0;exitX=1;exitY=0.5;exitDx=0;exitDy=0;" parent="1" source="3GcMtql7V56vAbpa6kK3-67" target="3GcMtql7V56vAbpa6kK3-32" edge="1">
          <mxGeometry width="160" relative="1" as="geometry">
            <mxPoint x="319" y="624" as="sourcePoint" />
            <mxPoint x="479" y="624" as="targetPoint" />
          </mxGeometry>
        </mxCell>
        <mxCell id="3GcMtql7V56vAbpa6kK3-75" style="edgeStyle=orthogonalEdgeStyle;rounded=0;orthogonalLoop=1;jettySize=auto;html=1;exitX=0.5;exitY=0.5;exitDx=0;exitDy=0;exitPerimeter=0;" parent="1" source="3GcMtql7V56vAbpa6kK3-72" target="3GcMtql7V56vAbpa6kK3-74" edge="1">
          <mxGeometry relative="1" as="geometry" />
        </mxCell>
        <mxCell id="3GcMtql7V56vAbpa6kK3-72" value="Czujnik magazynku" style="shape=umlActor;verticalLabelPosition=bottom;verticalAlign=top;html=1;fillColor=#ffe6cc;strokeColor=#d79b00;" parent="1" vertex="1">
          <mxGeometry x="760" y="274" width="30" height="60" as="geometry" />
        </mxCell>
        <mxCell id="U8Dto0rnsPPyauF-UxUy-29" style="edgeStyle=orthogonalEdgeStyle;rounded=0;orthogonalLoop=1;jettySize=auto;html=1;" edge="1" parent="1" source="3GcMtql7V56vAbpa6kK3-73" target="3GcMtql7V56vAbpa6kK3-77">
          <mxGeometry relative="1" as="geometry" />
        </mxCell>
        <mxCell id="3GcMtql7V56vAbpa6kK3-73" value="Wyświetlacz LCD " style="shape=umlActor;verticalLabelPosition=bottom;verticalAlign=top;html=1;fillColor=#fff2cc;strokeColor=#d6b656;" parent="1" vertex="1">
          <mxGeometry x="760" y="399" width="30" height="60" as="geometry" />
        </mxCell>
        <mxCell id="3GcMtql7V56vAbpa6kK3-74" value="&lt;div&gt;Wielopoziomowa &lt;br&gt;&lt;/div&gt;&lt;div&gt;detekcja zawartości naboi&lt;br&gt;&lt;/div&gt;" style="ellipse;whiteSpace=wrap;html=1;fillColor=#ffe6cc;strokeColor=#d79b00;" parent="1" vertex="1">
          <mxGeometry x="580" y="264" width="140" height="70" as="geometry" />
        </mxCell>
        <mxCell id="3GcMtql7V56vAbpa6kK3-77" value="&lt;div&gt;Wyświetlanie ilości pozostałych naboi oraz &lt;br&gt;&lt;/div&gt;stanu baterii" style="ellipse;whiteSpace=wrap;html=1;fillColor=#f5f5f5;strokeColor=#666666;fontColor=#333333;rotation=0;" parent="1" vertex="1">
          <mxGeometry x="580" y="394" width="140" height="70" as="geometry" />
        </mxCell>
        <mxCell id="3GcMtql7V56vAbpa6kK3-86" value="&amp;lt;&amp;lt;extend&amp;gt;&amp;gt;" style="endArrow=block;endSize=16;endFill=0;html=1;exitX=0.5;exitY=0;exitDx=0;exitDy=0;" parent="1" source="3GcMtql7V56vAbpa6kK3-60" target="3GcMtql7V56vAbpa6kK3-56" edge="1">
          <mxGeometry width="160" relative="1" as="geometry">
            <mxPoint x="1300" y="855" as="sourcePoint" />
            <mxPoint x="1250" y="950" as="targetPoint" />
          </mxGeometry>
        </mxCell>
        <mxCell id="3GcMtql7V56vAbpa6kK3-87" value="&lt;div&gt;Monitoring &lt;br&gt;&lt;/div&gt;&lt;div&gt;nadajników&lt;br&gt;&lt;/div&gt;" style="ellipse;whiteSpace=wrap;html=1;gradientColor=#ffd966;fillColor=#fff2cc;strokeColor=#d6b656;" parent="1" vertex="1">
          <mxGeometry x="230" y="944" width="150" height="90" as="geometry" />
        </mxCell>
        <mxCell id="3GcMtql7V56vAbpa6kK3-89" value="Delegacja wsparcia" style="ellipse;whiteSpace=wrap;html=1;gradientColor=#ffd966;fillColor=#fff2cc;strokeColor=#d6b656;" parent="1" vertex="1">
          <mxGeometry x="80" y="854" width="140" height="70" as="geometry" />
        </mxCell>
        <mxCell id="3GcMtql7V56vAbpa6kK3-92" value="&amp;lt;&amp;lt;include&amp;gt;&amp;gt;" style="endArrow=block;endSize=16;endFill=0;html=1;entryX=1;entryY=1;entryDx=0;entryDy=0;exitX=0;exitY=0;exitDx=0;exitDy=0;" parent="1" source="3GcMtql7V56vAbpa6kK3-87" target="3GcMtql7V56vAbpa6kK3-89" edge="1">
          <mxGeometry width="160" relative="1" as="geometry">
            <mxPoint x="189" y="1340" as="sourcePoint" />
            <mxPoint x="129" y="1250" as="targetPoint" />
          </mxGeometry>
        </mxCell>
        <mxCell id="3GcMtql7V56vAbpa6kK3-96" value="&lt;font style=&quot;font-size: 14px&quot;&gt;Stacja bazowa&lt;/font&gt;" style="shape=umlActor;verticalLabelPosition=bottom;verticalAlign=top;html=1;outlineConnect=0;gradientColor=#ea6b66;fillColor=#f8cecc;strokeColor=#b85450;" parent="1" vertex="1">
          <mxGeometry x="40" y="726.5" width="30" height="60" as="geometry" />
        </mxCell>
        <mxCell id="U8Dto0rnsPPyauF-UxUy-40" style="edgeStyle=orthogonalEdgeStyle;rounded=0;orthogonalLoop=1;jettySize=auto;html=1;" edge="1" parent="1" source="3GcMtql7V56vAbpa6kK3-97" target="3GcMtql7V56vAbpa6kK3-96">
          <mxGeometry relative="1" as="geometry" />
        </mxCell>
        <mxCell id="3GcMtql7V56vAbpa6kK3-97" value="&lt;div&gt;Zarządzanie połączeniami&lt;/div&gt;&lt;div&gt;nadawca-odbiorca&lt;br&gt;&lt;/div&gt;" style="ellipse;whiteSpace=wrap;html=1;gradientColor=#ea6b66;fillColor=#f8cecc;strokeColor=#b85450;" parent="1" vertex="1">
          <mxGeometry x="136" y="714" width="180" height="85" as="geometry" />
        </mxCell>
        <mxCell id="3GcMtql7V56vAbpa6kK3-99" value="&lt;div&gt;Kolejkowanie połączeń &lt;br&gt;&lt;/div&gt;&lt;div&gt;względem priorytetu&lt;br&gt;&lt;/div&gt;" style="ellipse;whiteSpace=wrap;html=1;gradientColor=#ea6b66;fillColor=#f8cecc;strokeColor=#b85450;" parent="1" vertex="1">
          <mxGeometry x="260" y="854" width="140" height="70" as="geometry" />
        </mxCell>
        <mxCell id="U8Dto0rnsPPyauF-UxUy-16" value="&amp;lt;&amp;lt;include&amp;gt;&amp;gt;" style="endArrow=block;endSize=16;endFill=0;html=1;entryX=0.5;entryY=1;entryDx=0;entryDy=0;exitX=0.5;exitY=0;exitDx=0;exitDy=0;" edge="1" parent="1" source="3GcMtql7V56vAbpa6kK3-15" target="3GcMtql7V56vAbpa6kK3-32">
          <mxGeometry width="160" relative="1" as="geometry">
            <mxPoint x="344" y="631.25" as="sourcePoint" />
            <mxPoint x="412.4314575050762" y="573.9987373415291" as="targetPoint" />
          </mxGeometry>
        </mxCell>
        <mxCell id="U8Dto0rnsPPyauF-UxUy-32" style="edgeStyle=orthogonalEdgeStyle;rounded=0;orthogonalLoop=1;jettySize=auto;html=1;" edge="1" parent="1" source="U8Dto0rnsPPyauF-UxUy-24" target="U8Dto0rnsPPyauF-UxUy-26">
          <mxGeometry relative="1" as="geometry" />
        </mxCell>
        <mxCell id="U8Dto0rnsPPyauF-UxUy-24" value="Czujnik poziomu baterii" style="shape=umlActor;verticalLabelPosition=bottom;verticalAlign=top;html=1;outlineConnect=0;fillColor=#ffe6cc;strokeColor=#d79b00;" vertex="1" parent="1">
          <mxGeometry x="720" y="140" width="30" height="60" as="geometry" />
        </mxCell>
        <mxCell id="U8Dto0rnsPPyauF-UxUy-26" value="Mierzenie poziomu naładowania baterii&amp;nbsp; " style="ellipse;whiteSpace=wrap;html=1;fillColor=#ffe6cc;strokeColor=#d79b00;" vertex="1" parent="1">
          <mxGeometry x="440" y="130" width="120" height="80" as="geometry" />
        </mxCell>
        <mxCell id="U8Dto0rnsPPyauF-UxUy-35" value="&amp;lt;&amp;lt;include&amp;gt;&amp;gt;" style="endArrow=block;endSize=16;endFill=0;html=1;exitX=0;exitY=0;exitDx=0;exitDy=0;entryX=0.383;entryY=1.038;entryDx=0;entryDy=0;entryPerimeter=0;" edge="1" parent="1" source="3GcMtql7V56vAbpa6kK3-77" target="U8Dto0rnsPPyauF-UxUy-26">
          <mxGeometry width="160" relative="1" as="geometry">
            <mxPoint x="500" y="334" as="sourcePoint" />
            <mxPoint x="577.573593128807" y="272.2842712474619" as="targetPoint" />
          </mxGeometry>
        </mxCell>
        <mxCell id="U8Dto0rnsPPyauF-UxUy-36" value="&amp;lt;&amp;lt;include&amp;gt;&amp;gt;" style="endArrow=block;endSize=16;endFill=0;html=1;exitX=0.5;exitY=0;exitDx=0;exitDy=0;" edge="1" parent="1" source="3GcMtql7V56vAbpa6kK3-77">
          <mxGeometry x="-0.2" width="160" relative="1" as="geometry">
            <mxPoint x="620" y="390" as="sourcePoint" />
            <mxPoint x="650" y="334" as="targetPoint" />
            <mxPoint as="offset" />
          </mxGeometry>
        </mxCell>
        <mxCell id="U8Dto0rnsPPyauF-UxUy-37" value="AUTORYZACJA TO NIE ODBLOKOWANIE PISTOLETU" style="shape=callout;whiteSpace=wrap;html=1;perimeter=calloutPerimeter;" vertex="1" parent="1">
          <mxGeometry x="344.5" y="370" width="161" height="86" as="geometry" />
        </mxCell>
        <mxCell id="U8Dto0rnsPPyauF-UxUy-42" value="&amp;lt;&amp;lt;extend&amp;gt;&amp;gt;" style="endArrow=block;endSize=16;endFill=0;html=1;exitX=0.5;exitY=0;exitDx=0;exitDy=0;entryX=0.5;entryY=0;entryDx=0;entryDy=0;" edge="1" parent="1" target="3GcMtql7V56vAbpa6kK3-99">
          <mxGeometry width="160" relative="1" as="geometry">
            <mxPoint x="240" y="799" as="sourcePoint" />
            <mxPoint x="295" y="851.29" as="targetPoint" />
          </mxGeometry>
        </mxCell>
        <mxCell id="U8Dto0rnsPPyauF-UxUy-49" value="&amp;lt;&amp;lt;include&amp;gt;&amp;gt;" style="endArrow=block;endSize=16;endFill=0;html=1;entryX=0.361;entryY=0.979;entryDx=0;entryDy=0;exitX=0.5;exitY=0;exitDx=0;exitDy=0;entryPerimeter=0;" edge="1" parent="1" source="3GcMtql7V56vAbpa6kK3-56" target="3GcMtql7V56vAbpa6kK3-32">
          <mxGeometry width="160" relative="1" as="geometry">
            <mxPoint x="447.00000000000045" y="706" as="sourcePoint" />
            <mxPoint x="316" y="620" as="targetPoint" />
          </mxGeometry>
        </mxCell>
        <mxCell id="U8Dto0rnsPPyauF-UxUy-55" value="&amp;lt;&amp;lt;include&amp;gt;&amp;gt;" style="endArrow=block;endSize=16;endFill=0;html=1;entryX=0;entryY=0.5;entryDx=0;entryDy=0;exitX=1;exitY=0.5;exitDx=0;exitDy=0;" edge="1" parent="1">
          <mxGeometry width="160" relative="1" as="geometry">
            <mxPoint x="304" y="449" as="sourcePoint" />
            <mxPoint x="359" y="499" as="targetPoint" />
          </mxGeometry>
        </mxCell>
        <mxCell id="U8Dto0rnsPPyauF-UxUy-56" value="&amp;lt;&amp;lt;include&amp;gt;&amp;gt;" style="endArrow=block;endSize=16;endFill=0;html=1;entryX=1;entryY=0;entryDx=0;entryDy=0;exitX=0;exitY=0.5;exitDx=0;exitDy=0;" edge="1" parent="1" source="3GcMtql7V56vAbpa6kK3-77" target="3GcMtql7V56vAbpa6kK3-32">
          <mxGeometry width="160" relative="1" as="geometry">
            <mxPoint x="490" y="446" as="sourcePoint" />
            <mxPoint x="359" y="360" as="targetPoint" />
          </mxGeometry>
        </mxCell>
      </root>
    </mxGraphModel>
  </diagram>
</mxfile>
